<svg xmlns="http://www.w3.org/2000/svg" xmlns:xlink="http://www.w3.org/1999/xlink" width="500" zoomAndPan="magnify" viewBox="0 0 375 187.499995" height="250" preserveAspectRatio="xMidYMid meet" version="1.0"><defs><g/><clipPath id="5d929b1b4f"><path d="M 11.433594 74.292969 L 364.347656 74.292969 L 364.347656 107.371094 L 11.433594 107.371094 Z M 11.433594 74.292969 " clip-rule="nonzero"/></clipPath></defs><g fill="#000000" fill-opacity="1"><g transform="translate(49.664473, 147.747103)"><g><path d="M 3.8125 -1.53125 L 9.78125 -1.53125 C 13.082031 -1.53125 15.851562 -3.265625 18.09375 -6.734375 C 20.332031 -10.203125 22.234375 -14.875 23.796875 -20.75 C 25.367188 -26.632812 26.769531 -33.257812 28 -40.625 C 29.226562 -47.988281 30.429688 -55.609375 31.609375 -63.484375 C 32.546875 -69.242188 33.519531 -75.125 34.53125 -81.125 C 35.550781 -87.132812 36.546875 -92.828125 37.515625 -98.203125 C 38.492188 -103.578125 39.273438 -108.335938 39.859375 -112.484375 C 40.453125 -116.640625 40.75 -119.773438 40.75 -121.890625 C 40.75 -123.078125 40.195312 -123.960938 39.09375 -124.546875 C 38 -125.140625 36.773438 -125.4375 35.421875 -125.4375 L 25.640625 -125.4375 L 25.640625 -126.96875 L 49.265625 -126.96875 C 49.347656 -126.71875 49.410156 -126.460938 49.453125 -126.203125 C 49.492188 -125.953125 49.554688 -125.695312 49.640625 -125.4375 C 52.179688 -116.132812 54.488281 -107.710938 56.5625 -100.171875 C 58.632812 -92.640625 60.601562 -85.550781 62.46875 -78.90625 C 64.332031 -72.257812 66.148438 -65.675781 67.921875 -59.15625 C 69.703125 -52.644531 71.609375 -45.789062 73.640625 -38.59375 C 75.671875 -31.40625 77.875 -23.453125 80.25 -14.734375 C 82.445312 -23.273438 84.519531 -31.125 86.46875 -38.28125 C 88.414062 -45.4375 90.273438 -52.289062 92.046875 -58.84375 C 93.828125 -65.40625 95.625 -72.03125 97.4375 -78.71875 C 99.257812 -85.40625 101.164062 -92.535156 103.15625 -100.109375 C 105.144531 -107.691406 107.285156 -116.132812 109.578125 -125.4375 C 109.660156 -125.695312 109.722656 -125.953125 109.765625 -126.203125 C 109.804688 -126.460938 109.867188 -126.71875 109.953125 -126.96875 L 132.171875 -126.96875 L 132.171875 -125.4375 L 120.359375 -125.4375 C 118.078125 -125.4375 116.9375 -124.421875 116.9375 -122.390625 C 116.9375 -120.785156 117.253906 -117.929688 117.890625 -113.828125 C 118.523438 -109.722656 119.304688 -104.875 120.234375 -99.28125 C 121.171875 -93.695312 122.1875 -87.796875 123.28125 -81.578125 C 124.382812 -75.359375 125.359375 -69.328125 126.203125 -63.484375 C 127.390625 -55.609375 128.597656 -47.988281 129.828125 -40.625 C 131.054688 -33.257812 132.453125 -26.632812 134.015625 -20.75 C 135.578125 -14.875 137.476562 -10.203125 139.71875 -6.734375 C 141.96875 -3.265625 144.742188 -1.53125 148.046875 -1.53125 L 154.015625 -1.53125 L 154.015625 0 L 104.5 0 L 104.5 -1.390625 L 110.078125 -1.390625 C 115.160156 -1.390625 119.035156 -2.570312 121.703125 -4.9375 C 124.367188 -7.3125 125.703125 -10.363281 125.703125 -14.09375 C 125.703125 -16.46875 125.34375 -20.382812 124.625 -25.84375 C 123.90625 -31.300781 122.953125 -37.753906 121.765625 -45.203125 C 120.578125 -52.648438 119.265625 -60.625 117.828125 -69.125 C 116.390625 -77.632812 114.925781 -86.144531 113.4375 -94.65625 C 111.957031 -103.164062 110.628906 -111.1875 109.453125 -118.71875 C 104.035156 -98.570312 98.640625 -78.253906 93.265625 -57.765625 C 87.890625 -37.285156 82.445312 -17.179688 76.9375 2.546875 L 75.421875 2.546875 C 73.046875 -6.085938 70.882812 -14.210938 68.9375 -21.828125 C 67 -29.453125 65.140625 -36.882812 63.359375 -44.125 C 61.578125 -51.363281 59.710938 -58.660156 57.765625 -66.015625 C 55.816406 -73.378906 53.65625 -81.082031 51.28125 -89.125 C 48.914062 -97.164062 46.171875 -105.800781 43.046875 -115.03125 C 42.867188 -115.625 42.695312 -116.195312 42.53125 -116.75 C 42.363281 -117.300781 42.195312 -117.875 42.03125 -118.46875 C 40.414062 -108.894531 38.867188 -99.175781 37.390625 -89.3125 C 35.910156 -79.457031 34.554688 -69.957031 33.328125 -60.8125 C 32.097656 -51.675781 31.125 -43.40625 30.40625 -36 C 29.6875 -28.59375 29.328125 -22.601562 29.328125 -18.03125 C 29.328125 -14.894531 29.644531 -12.078125 30.28125 -9.578125 C 30.914062 -7.085938 32.097656 -5.097656 33.828125 -3.609375 C 35.566406 -2.128906 38.128906 -1.390625 41.515625 -1.390625 L 47.109375 -1.390625 L 47.109375 0 L 3.8125 0 Z M 3.8125 -1.53125 "/></g></g></g><g fill="#000000" fill-opacity="1"><g transform="translate(196.319104, 147.747103)"><g><path d="M 3.8125 -125.4375 L 3.8125 -126.96875 L 42.78125 -126.96875 L 42.78125 -125.4375 L 36.1875 -125.4375 C 35.082031 -125.4375 34 -125.3125 32.9375 -125.0625 C 31.882812 -124.8125 31.359375 -123.835938 31.359375 -122.140625 C 31.359375 -121.378906 31.882812 -119.242188 32.9375 -115.734375 C 34 -112.222656 35.421875 -107.78125 37.203125 -102.40625 C 38.984375 -97.03125 40.992188 -91.101562 43.234375 -84.625 C 45.472656 -78.144531 47.773438 -71.519531 50.140625 -64.75 C 52.515625 -57.976562 54.820312 -51.4375 57.0625 -45.125 C 59.3125 -38.820312 61.320312 -33.175781 63.09375 -28.1875 C 64.875 -23.195312 66.289062 -19.238281 67.34375 -16.3125 C 68.40625 -13.394531 68.9375 -11.9375 68.9375 -11.9375 L 68.4375 -13.453125 C 69.875 -17.609375 71.816406 -23.113281 74.265625 -29.96875 C 76.722656 -36.820312 79.304688 -44.1875 82.015625 -52.0625 C 84.222656 -58.320312 86.382812 -64.625 88.5 -70.96875 C 90.613281 -77.320312 92.535156 -83.394531 94.265625 -89.1875 C 96.003906 -94.988281 97.398438 -100.195312 98.453125 -104.8125 C 99.515625 -109.425781 100.046875 -113.085938 100.046875 -115.796875 C 100.046875 -119.347656 98.988281 -121.84375 96.875 -123.28125 C 94.757812 -124.71875 92.472656 -125.4375 90.015625 -125.4375 L 83.421875 -125.4375 L 83.421875 -126.96875 L 125.1875 -126.96875 L 125.1875 -125.4375 L 119.984375 -125.4375 C 117.441406 -125.4375 115.28125 -124.757812 113.5 -123.40625 C 111.726562 -122.050781 110.226562 -120.441406 109 -118.578125 C 107.769531 -116.722656 106.734375 -114.945312 105.890625 -113.25 C 105.640625 -112.664062 104.941406 -110.828125 103.796875 -107.734375 C 102.648438 -104.640625 101.1875 -100.617188 99.40625 -95.671875 C 97.632812 -90.722656 95.691406 -85.175781 93.578125 -79.03125 C 91.460938 -72.894531 89.238281 -66.523438 86.90625 -59.921875 C 84.582031 -53.328125 82.296875 -46.769531 80.046875 -40.25 C 77.804688 -33.726562 75.691406 -27.609375 73.703125 -21.890625 C 71.710938 -16.179688 70 -11.210938 68.5625 -6.984375 C 67.125 -2.753906 66.023438 0.421875 65.265625 2.546875 L 63.734375 2.546875 C 62.972656 0.421875 61.875 -2.753906 60.4375 -6.984375 C 59 -11.210938 57.285156 -16.179688 55.296875 -21.890625 C 53.304688 -27.609375 51.1875 -33.726562 48.9375 -40.25 C 46.695312 -46.769531 44.410156 -53.328125 42.078125 -59.921875 C 39.753906 -66.523438 37.535156 -72.894531 35.421875 -79.03125 C 33.304688 -85.175781 31.359375 -90.722656 29.578125 -95.671875 C 27.804688 -100.617188 26.347656 -104.640625 25.203125 -107.734375 C 24.054688 -110.828125 23.359375 -112.664062 23.109375 -113.25 C 22.265625 -114.945312 21.226562 -116.722656 20 -118.578125 C 18.769531 -120.441406 17.265625 -122.050781 15.484375 -123.40625 C 13.710938 -124.757812 11.554688 -125.4375 9.015625 -125.4375 Z M 3.8125 -125.4375 "/></g></g></g><g clip-path="url(#5d929b1b4f)"><path fill="#ffffff" d="M 11.433594 74.292969 L 364.316406 74.292969 L 364.316406 107.371094 L 11.433594 107.371094 Z M 11.433594 74.292969 " fill-opacity="1" fill-rule="nonzero"/></g><g fill="#000000" fill-opacity="1"><g transform="translate(54.442956, 102.630275)"><g><path d="M 29.8125 -10.875 C 29.945312 -10.53125 29.820312 -10.28125 29.4375 -10.125 C 29.0625 -9.976562 28.703125 -9.835938 28.359375 -9.703125 C 26.347656 -8.953125 24.28125 -8.203125 22.15625 -7.453125 C 20.03125 -6.703125 17.945312 -6.023438 15.90625 -5.421875 C 13.863281 -4.816406 11.941406 -4.332031 10.140625 -3.96875 C 8.347656 -3.601562 6.738281 -3.421875 5.3125 -3.421875 C 3.59375 -3.421875 2.304688 -3.71875 1.453125 -4.3125 L 1.40625 -4.3125 C 1.082031 -4.550781 0.789062 -4.859375 0.53125 -5.234375 C 0.09375 -5.910156 0.03125 -6.804688 0.34375 -7.921875 C 0.65625 -9.035156 1.320312 -10.316406 2.34375 -11.765625 C 2.71875 -12.328125 3.140625 -12.894531 3.609375 -13.46875 C 4.078125 -14.050781 4.609375 -14.632812 5.203125 -15.21875 C 5.816406 -15.925781 6.570312 -16.710938 7.46875 -17.578125 C 8.375 -18.453125 9.316406 -19.304688 10.296875 -20.140625 C 11.273438 -20.972656 12.171875 -21.703125 12.984375 -22.328125 C 13.804688 -22.960938 14.445312 -23.375 14.90625 -23.5625 C 15.3125 -23.832031 15.734375 -24.070312 16.171875 -24.28125 C 16.617188 -24.5 17.054688 -24.660156 17.484375 -24.765625 C 17.910156 -24.898438 18.242188 -24.929688 18.484375 -24.859375 C 18.734375 -24.796875 18.921875 -24.710938 19.046875 -24.609375 C 19.421875 -24.285156 19.582031 -23.75 19.53125 -23 C 19.375 -21.65625 18.785156 -20.394531 17.765625 -19.21875 C 17.523438 -18.976562 17.269531 -18.941406 17 -19.109375 C 16.726562 -19.285156 16.675781 -19.550781 16.84375 -19.90625 C 17 -20.25 17.191406 -20.582031 17.421875 -20.90625 C 17.648438 -21.226562 17.859375 -21.59375 18.046875 -22 C 18.128906 -22.15625 18.222656 -22.441406 18.328125 -22.859375 C 18.429688 -23.273438 18.414062 -23.550781 18.28125 -23.6875 C 17.832031 -23.6875 17.320312 -23.566406 16.75 -23.328125 C 15.789062 -22.785156 14.851562 -22.175781 13.9375 -21.5 C 13.019531 -20.832031 12.050781 -20.070312 11.03125 -19.21875 C 9.71875 -18.082031 8.410156 -16.867188 7.109375 -15.578125 C 5.804688 -14.296875 4.628906 -12.941406 3.578125 -11.515625 L 3.546875 -11.515625 C 2.609375 -10.253906 1.941406 -9.125 1.546875 -8.125 C 1.160156 -7.132812 1.140625 -6.382812 1.484375 -5.875 C 1.566406 -5.71875 1.675781 -5.59375 1.8125 -5.5 C 1.945312 -5.40625 2.082031 -5.304688 2.21875 -5.203125 L 2.171875 -5.203125 C 2.867188 -4.765625 3.863281 -4.546875 5.15625 -4.546875 C 6.445312 -4.546875 7.90625 -4.703125 9.53125 -5.015625 C 11.15625 -5.328125 12.851562 -5.738281 14.625 -6.25 C 16.394531 -6.757812 18.125 -7.296875 19.8125 -7.859375 C 21.507812 -8.421875 23.066406 -8.960938 24.484375 -9.484375 C 25.910156 -10.003906 27.066406 -10.441406 27.953125 -10.796875 C 28.171875 -10.878906 28.375 -10.953125 28.5625 -11.015625 C 28.75 -11.085938 28.921875 -11.148438 29.078125 -11.203125 C 29.398438 -11.335938 29.644531 -11.226562 29.8125 -10.875 Z M 29.8125 -10.875 "/></g></g></g><g fill="#000000" fill-opacity="1"><g transform="translate(83.562397, 102.630275)"><g><path d="M 21.796875 -10.828125 C 21.929688 -10.453125 21.820312 -10.210938 21.46875 -10.109375 C 21.46875 -10.109375 21.285156 -10.039062 20.921875 -9.90625 C 20.554688 -9.769531 20.132812 -9.613281 19.65625 -9.4375 C 19.175781 -9.269531 18.742188 -9.117188 18.359375 -8.984375 C 17.984375 -8.847656 17.785156 -8.78125 17.765625 -8.78125 C 15.910156 -8.1875 14.242188 -7.773438 12.765625 -7.546875 C 11.285156 -7.316406 9.972656 -7.203125 8.828125 -7.203125 C 7.773438 -7.203125 6.875 -7.269531 6.125 -7.40625 C 5.375 -7.539062 4.753906 -7.691406 4.265625 -7.859375 L 4.234375 -7.8125 C 3.484375 -7.03125 2.601562 -6.351562 1.59375 -5.78125 C 0.582031 -5.207031 -0.5 -4.957031 -1.65625 -5.03125 C -2.164062 -5.03125 -2.582031 -5.25 -2.90625 -5.6875 C -3.226562 -6.132812 -3.28125 -6.585938 -3.0625 -7.046875 C -2.707031 -7.847656 -2.234375 -8.566406 -1.640625 -9.203125 C -1.054688 -9.835938 -0.46875 -10.445312 0.125 -11.03125 C -0.0625 -11.601562 -0.164062 -12.195312 -0.1875 -12.8125 C -0.21875 -13.425781 -0.0625 -13.988281 0.28125 -14.5 C 0.601562 -15.0625 1.070312 -15.46875 1.6875 -15.71875 C 2.3125 -15.976562 2.941406 -16.054688 3.578125 -15.953125 C 4.222656 -15.847656 4.75 -15.539062 5.15625 -15.03125 C 5.9375 -14.164062 6.285156 -13.132812 6.203125 -11.9375 C 6.117188 -10.75 5.753906 -9.695312 5.109375 -8.78125 C 5.804688 -8.59375 6.765625 -8.457031 7.984375 -8.375 C 9.210938 -8.289062 10.695312 -8.375 12.4375 -8.625 C 14.1875 -8.882812 16.21875 -9.421875 18.53125 -10.234375 C 18.613281 -10.253906 18.832031 -10.332031 19.1875 -10.46875 C 19.550781 -10.601562 19.925781 -10.742188 20.3125 -10.890625 C 20.707031 -11.046875 20.957031 -11.132812 21.0625 -11.15625 C 21.382812 -11.289062 21.628906 -11.179688 21.796875 -10.828125 Z M 5 -12.765625 C 4.882812 -13.578125 4.59375 -14.140625 4.125 -14.453125 C 3.65625 -14.773438 3.148438 -14.882812 2.609375 -14.78125 C 2.078125 -14.675781 1.644531 -14.359375 1.3125 -13.828125 C 0.976562 -13.304688 0.875 -12.601562 1 -11.71875 C 1.457031 -11.957031 1.796875 -11.992188 2.015625 -11.828125 C 2.234375 -11.671875 2.113281 -11.328125 1.65625 -10.796875 C 1.945312 -10.472656 2.265625 -10.175781 2.609375 -9.90625 C 2.960938 -9.632812 3.394531 -9.394531 3.90625 -9.1875 C 4.28125 -9.71875 4.601562 -10.28125 4.875 -10.875 C 5.144531 -11.46875 5.1875 -12.097656 5 -12.765625 Z M -2.140625 -6.28125 C -1.140625 -6.09375 -0.195312 -6.21875 0.6875 -6.65625 C 1.570312 -7.101562 2.378906 -7.632812 3.109375 -8.25 C 2.210938 -8.789062 1.414062 -9.398438 0.71875 -10.078125 C 0.15625 -9.503906 -0.382812 -8.914062 -0.90625 -8.3125 C -1.425781 -7.707031 -1.835938 -7.03125 -2.140625 -6.28125 Z M -2.140625 -6.28125 "/></g></g></g><g fill="#000000" fill-opacity="1"><g transform="translate(104.626664, 102.630275)"><g><path d="M 25.90625 -10.828125 C 26.039062 -10.453125 25.929688 -10.210938 25.578125 -10.109375 C 25.546875 -10.109375 25.203125 -9.988281 24.546875 -9.75 C 23.890625 -9.507812 23.007812 -9.191406 21.90625 -8.796875 C 20.8125 -8.410156 19.570312 -7.984375 18.1875 -7.515625 C 16.800781 -7.046875 15.367188 -6.566406 13.890625 -6.078125 C 13.890625 -6.078125 13.6875 -6.015625 13.28125 -5.890625 C 12.882812 -5.773438 12.367188 -5.628906 11.734375 -5.453125 C 11.109375 -5.285156 10.46875 -5.113281 9.8125 -4.9375 C 9.15625 -4.757812 8.582031 -4.617188 8.09375 -4.515625 C 7.582031 -4.429688 7.019531 -4.367188 6.40625 -4.328125 C 5.789062 -4.285156 5.265625 -4.46875 4.828125 -4.875 C 4.566406 -5.144531 4.472656 -5.457031 4.546875 -5.8125 C 4.628906 -6.175781 4.738281 -6.492188 4.875 -6.765625 C 5.332031 -7.628906 5.875 -8.414062 6.5 -9.125 C 7.132812 -9.832031 7.773438 -10.550781 8.421875 -11.28125 C 5.359375 -10.664062 2.429688 -9.601562 -0.359375 -8.09375 C -0.628906 -7.90625 -0.960938 -7.8125 -1.359375 -7.8125 C -1.765625 -7.8125 -1.957031 -8.054688 -1.9375 -8.546875 C -1.3125 -9.773438 -0.507812 -10.878906 0.46875 -11.859375 C 1.445312 -12.835938 2.445312 -13.769531 3.46875 -14.65625 C 3.707031 -14.875 3.945312 -14.9375 4.1875 -14.84375 C 4.425781 -14.75 4.5625 -14.539062 4.59375 -14.21875 C 3.84375 -13.46875 3.070312 -12.726562 2.28125 -12 C 1.488281 -11.28125 0.753906 -10.488281 0.078125 -9.625 C 1.472656 -10.300781 2.894531 -10.894531 4.34375 -11.40625 C 5.800781 -11.914062 7.296875 -12.265625 8.828125 -12.453125 C 9.253906 -12.554688 9.570312 -12.410156 9.78125 -12.015625 C 10 -11.628906 9.960938 -11.289062 9.671875 -11 C 8.972656 -10.113281 8.226562 -9.253906 7.4375 -8.421875 C 6.644531 -7.585938 6.03125 -6.617188 5.59375 -5.515625 C 6.664062 -5.429688 7.71875 -5.53125 8.75 -5.8125 C 9.789062 -6.101562 10.820312 -6.378906 11.84375 -6.640625 C 12.113281 -6.722656 12.378906 -6.796875 12.640625 -6.859375 C 12.910156 -6.929688 13.179688 -7.019531 13.453125 -7.125 C 15.117188 -7.664062 16.9375 -8.269531 18.90625 -8.9375 C 20.882812 -9.613281 22.972656 -10.351562 25.171875 -11.15625 C 25.492188 -11.289062 25.738281 -11.179688 25.90625 -10.828125 Z M 25.90625 -10.828125 "/></g></g></g><g fill="#000000" fill-opacity="1"><g transform="translate(129.799071, 102.630275)"><g><path d="M 24.203125 -10.875 C 24.316406 -10.5 24.195312 -10.242188 23.84375 -10.109375 C 23.550781 -9.972656 23.09375 -9.796875 22.46875 -9.578125 C 21.851562 -9.367188 21.25 -9.171875 20.65625 -8.984375 C 20.070312 -8.796875 19.644531 -8.660156 19.375 -8.578125 C 17.332031 -8.046875 15.238281 -7.675781 13.09375 -7.46875 C 10.945312 -7.269531 8.8125 -7.128906 6.6875 -7.046875 C 6.363281 -6.617188 6.015625 -6.171875 5.640625 -5.703125 C 5.265625 -5.234375 4.84375 -4.835938 4.375 -4.515625 C 3.90625 -4.191406 3.359375 -4.03125 2.734375 -4.03125 C 2.304688 -4 1.953125 -4.171875 1.671875 -4.546875 C 1.390625 -4.921875 1.34375 -5.3125 1.53125 -5.71875 C 1.9375 -6.601562 2.585938 -7.238281 3.484375 -7.625 C 4.378906 -8.019531 5.285156 -8.296875 6.203125 -8.453125 C 6.253906 -8.753906 6.3125 -9.054688 6.375 -9.359375 C 6.445312 -9.671875 6.507812 -9.972656 6.5625 -10.265625 C 5.914062 -10.265625 5.273438 -10.175781 4.640625 -10 C 4.015625 -9.832031 3.394531 -9.6875 2.78125 -9.5625 C 2.164062 -9.445312 1.535156 -9.425781 0.890625 -9.5 C 0.378906 -9.613281 0.0820312 -9.914062 0 -10.40625 C -0.0820312 -10.90625 -0.03125 -11.332031 0.15625 -11.6875 C 0.5625 -12.570312 1.097656 -13.375 1.765625 -14.09375 C 2.441406 -14.820312 3.207031 -15.390625 4.0625 -15.796875 C 4.4375 -15.984375 4.863281 -16.078125 5.34375 -16.078125 C 5.832031 -16.078125 6.210938 -15.890625 6.484375 -15.515625 C 6.703125 -15.160156 6.71875 -14.804688 6.53125 -14.453125 C 6.34375 -14.109375 6.097656 -13.828125 5.796875 -13.609375 C 5.367188 -13.671875 5.15625 -13.851562 5.15625 -14.15625 C 5.15625 -14.46875 5.195312 -14.757812 5.28125 -15.03125 C 4.257812 -14.675781 3.367188 -14.09375 2.609375 -13.28125 C 1.859375 -12.476562 1.3125 -11.566406 0.96875 -10.546875 C 1.632812 -10.523438 2.289062 -10.597656 2.9375 -10.765625 C 3.582031 -10.941406 4.234375 -11.101562 4.890625 -11.25 C 5.546875 -11.40625 6.195312 -11.398438 6.84375 -11.234375 C 7.25 -11.046875 7.488281 -10.773438 7.5625 -10.421875 C 7.644531 -10.078125 7.65625 -9.703125 7.59375 -9.296875 C 7.53125 -8.898438 7.441406 -8.523438 7.328125 -8.171875 C 8.992188 -8.335938 10.660156 -8.46875 12.328125 -8.5625 C 13.992188 -8.65625 15.644531 -8.890625 17.28125 -9.265625 C 18.300781 -9.484375 19.351562 -9.785156 20.4375 -10.171875 C 21.53125 -10.554688 22.53125 -10.898438 23.4375 -11.203125 C 23.789062 -11.335938 24.046875 -11.226562 24.203125 -10.875 Z M 2.65625 -5 C 3.21875 -5.1875 3.710938 -5.46875 4.140625 -5.84375 C 4.578125 -6.21875 4.957031 -6.644531 5.28125 -7.125 C 4.769531 -6.9375 4.226562 -6.695312 3.65625 -6.40625 C 3.09375 -6.113281 2.757812 -5.644531 2.65625 -5 Z M 2.65625 -5 "/></g></g></g><g fill="#000000" fill-opacity="1"><g transform="translate(153.239612, 102.630275)"><g><path d="M 28.515625 -10.875 C 28.566406 -10.738281 28.554688 -10.597656 28.484375 -10.453125 C 28.421875 -10.304688 28.3125 -10.207031 28.15625 -10.15625 C 28.15625 -10.15625 27.789062 -10.015625 27.0625 -9.734375 C 26.34375 -9.453125 25.378906 -9.09375 24.171875 -8.65625 C 22.960938 -8.226562 21.617188 -7.785156 20.140625 -7.328125 C 19.285156 -7.054688 18.394531 -6.789062 17.46875 -6.53125 C 16.539062 -6.28125 15.71875 -6.0625 15 -5.875 C 14.289062 -5.6875 13.816406 -5.566406 13.578125 -5.515625 C 12.046875 -5.140625 10.796875 -4.878906 9.828125 -4.734375 C 8.859375 -4.585938 8.09375 -4.515625 7.53125 -4.515625 C 7 -4.515625 6.609375 -4.566406 6.359375 -4.671875 C 6.117188 -4.773438 5.929688 -4.910156 5.796875 -5.078125 C 5.742188 -5.160156 5.695312 -5.28125 5.65625 -5.4375 C 5.613281 -5.59375 5.664062 -5.863281 5.8125 -6.25 C 5.96875 -6.644531 6.265625 -7.1875 6.703125 -7.875 C 7.148438 -8.5625 7.828125 -9.46875 8.734375 -10.59375 C 7.078125 -10.113281 5.453125 -9.507812 3.859375 -8.78125 C 2.273438 -8.050781 0.65625 -7.460938 -1 -7.015625 C -1.320312 -6.984375 -1.6875 -6.925781 -2.09375 -6.84375 C -2.5 -6.769531 -2.796875 -6.921875 -2.984375 -7.296875 C -3.140625 -7.617188 -3.117188 -7.910156 -2.921875 -8.171875 C -2.722656 -8.441406 -2.53125 -8.6875 -2.34375 -8.90625 C -1.5625 -9.757812 -0.742188 -10.585938 0.109375 -11.390625 C 0.972656 -12.203125 1.890625 -12.929688 2.859375 -13.578125 C 3.097656 -13.785156 3.382812 -13.835938 3.71875 -13.734375 C 4.0625 -13.628906 4.140625 -13.375 3.953125 -12.96875 C 2.953125 -12.25 1.988281 -11.484375 1.0625 -10.671875 C 0.132812 -9.867188 -0.726562 -9 -1.53125 -8.0625 C 0.238281 -8.539062 1.945312 -9.171875 3.59375 -9.953125 C 5.25 -10.734375 6.976562 -11.335938 8.78125 -11.765625 C 9.101562 -11.867188 9.460938 -11.894531 9.859375 -11.84375 C 10.265625 -11.789062 10.46875 -11.535156 10.46875 -11.078125 C 10.46875 -10.972656 10.394531 -10.816406 10.25 -10.609375 C 10.101562 -10.410156 10.015625 -10.3125 9.984375 -10.3125 C 9.503906 -9.71875 9.03125 -9.113281 8.5625 -8.5 C 8.09375 -7.882812 7.695312 -7.328125 7.375 -6.828125 C 7.050781 -6.328125 6.863281 -5.957031 6.8125 -5.71875 C 7.101562 -5.613281 7.675781 -5.609375 8.53125 -5.703125 C 9.394531 -5.796875 10.4375 -5.972656 11.65625 -6.234375 C 12.882812 -6.503906 14.195312 -6.820312 15.59375 -7.1875 C 16.988281 -7.550781 18.359375 -7.945312 19.703125 -8.375 C 19.703125 -8.375 19.984375 -8.46875 20.546875 -8.65625 C 21.109375 -8.84375 21.8125 -9.082031 22.65625 -9.375 C 23.5 -9.675781 24.378906 -9.988281 25.296875 -10.3125 C 26.210938 -10.632812 27.03125 -10.929688 27.75 -11.203125 C 28.101562 -11.335938 28.359375 -11.226562 28.515625 -10.875 Z M 28.515625 -10.875 "/></g></g></g><g fill="#000000" fill-opacity="1"><g transform="translate(180.989673, 102.630275)"><g><path d="M 28.234375 -10.828125 C 28.335938 -10.429688 28.21875 -10.191406 27.875 -10.109375 C 27.875 -10.109375 27.535156 -9.976562 26.859375 -9.71875 C 26.191406 -9.46875 25.296875 -9.144531 24.171875 -8.75 C 23.046875 -8.363281 21.78125 -7.9375 20.375 -7.46875 C 18.976562 -7 17.546875 -6.523438 16.078125 -6.046875 C 16.046875 -6.046875 15.476562 -5.875 14.375 -5.53125 C 13.28125 -5.195312 11.796875 -4.832031 9.921875 -4.4375 C 8.054688 -4.050781 5.972656 -3.753906 3.671875 -3.546875 C 3.179688 -3.546875 2.613281 -3.546875 1.96875 -3.546875 C 1.320312 -3.546875 0.691406 -3.601562 0.078125 -3.71875 C -0.535156 -3.84375 -1.039062 -4.085938 -1.4375 -4.453125 C -1.84375 -4.816406 -2.046875 -5.375 -2.046875 -6.125 C -2.023438 -6.90625 -1.90625 -7.609375 -1.6875 -8.234375 C -1.476562 -8.867188 -1.117188 -9.601562 -0.609375 -10.4375 C 1.460938 -13.5 3.925781 -16.21875 6.78125 -18.59375 C 9.644531 -20.96875 12.742188 -22.929688 16.078125 -24.484375 C 16.609375 -24.703125 17.15625 -24.898438 17.71875 -25.078125 C 18.28125 -25.253906 18.859375 -25.3125 19.453125 -25.25 C 19.828125 -25.226562 20.128906 -25.039062 20.359375 -24.6875 C 20.585938 -24.34375 20.625 -23.984375 20.46875 -23.609375 C 20.164062 -22.796875 19.691406 -22.09375 19.046875 -21.5 C 18.410156 -20.914062 17.78125 -20.351562 17.15625 -19.8125 C 14.632812 -17.851562 11.976562 -16.109375 9.1875 -14.578125 C 6.394531 -13.046875 3.601562 -11.53125 0.8125 -10.03125 C -0.0820312 -8.875 -0.648438 -7.625 -0.890625 -6.28125 C -1.023438 -5.769531 -0.898438 -5.398438 -0.515625 -5.171875 C -0.140625 -4.941406 0.332031 -4.789062 0.90625 -4.71875 C 1.476562 -4.65625 2.035156 -4.640625 2.578125 -4.671875 C 3.117188 -4.703125 3.484375 -4.71875 3.671875 -4.71875 C 4.984375 -4.875 6.203125 -5.046875 7.328125 -5.234375 C 8.453125 -5.421875 9.617188 -5.648438 10.828125 -5.921875 C 12.035156 -6.191406 13.398438 -6.546875 14.921875 -6.984375 C 16.441406 -7.429688 18.210938 -7.988281 20.234375 -8.65625 C 22.265625 -9.332031 24.691406 -10.164062 27.515625 -11.15625 C 27.835938 -11.289062 28.078125 -11.179688 28.234375 -10.828125 Z M 15.546875 -22.953125 C 12.941406 -21.617188 10.484375 -20.035156 8.171875 -18.203125 C 5.867188 -16.378906 3.816406 -14.3125 2.015625 -12 C 4.242188 -13.132812 6.445312 -14.316406 8.625 -15.546875 C 10.800781 -16.785156 12.90625 -18.128906 14.9375 -19.578125 C 15.800781 -20.222656 16.65625 -20.898438 17.5 -21.609375 C 18.34375 -22.316406 19.007812 -23.171875 19.5 -24.171875 C 18.800781 -24.140625 18.117188 -24.007812 17.453125 -23.78125 C 16.796875 -23.550781 16.160156 -23.273438 15.546875 -22.953125 Z M 15.546875 -22.953125 "/></g></g></g><g fill="#000000" fill-opacity="1"><g transform="translate(208.498082, 102.630275)"><g><path d="M 28.234375 -10.828125 C 28.285156 -10.703125 28.273438 -10.5625 28.203125 -10.40625 C 28.140625 -10.257812 28.046875 -10.160156 27.921875 -10.109375 C 27.921875 -10.109375 27.582031 -9.976562 26.90625 -9.71875 C 26.238281 -9.46875 25.335938 -9.144531 24.203125 -8.75 C 23.078125 -8.363281 21.816406 -7.9375 20.421875 -7.46875 C 19.023438 -7 17.585938 -6.523438 16.109375 -6.046875 C 16.242188 -6.097656 16.050781 -6.046875 15.53125 -5.890625 C 15.007812 -5.742188 14.273438 -5.546875 13.328125 -5.296875 C 12.390625 -5.046875 11.316406 -4.785156 10.109375 -4.515625 C 8.898438 -4.242188 7.671875 -4.003906 6.421875 -3.796875 C 5.171875 -3.597656 3.972656 -3.484375 2.828125 -3.453125 C 1.691406 -3.429688 0.722656 -3.53125 -0.078125 -3.75 C -0.640625 -3.851562 -1.109375 -4.132812 -1.484375 -4.59375 C -1.859375 -5.050781 -2.035156 -5.5625 -2.015625 -6.125 C -1.960938 -7.0625 -1.757812 -7.90625 -1.40625 -8.65625 C -1.0625 -9.40625 -0.644531 -10.1875 -0.15625 -11 C 0.539062 -12.15625 1.289062 -13.273438 2.09375 -14.359375 C 2.894531 -15.441406 3.738281 -16.492188 4.625 -17.515625 C 3.875 -17.492188 3.113281 -17.4375 2.34375 -17.34375 C 1.582031 -17.25 0.816406 -17.160156 0.046875 -17.078125 C 0.046875 -17.367188 0.117188 -17.640625 0.265625 -17.890625 C 0.410156 -18.148438 0.644531 -18.28125 0.96875 -18.28125 C 1.769531 -18.445312 2.570312 -18.550781 3.375 -18.59375 C 4.1875 -18.632812 4.992188 -18.679688 5.796875 -18.734375 C 6.609375 -19.515625 7.441406 -20.285156 8.296875 -21.046875 C 9.160156 -21.804688 10.128906 -22.40625 11.203125 -22.84375 C 11.597656 -23 12.070312 -23.054688 12.625 -23.015625 C 13.175781 -22.972656 13.503906 -22.6875 13.609375 -22.15625 C 13.722656 -21.476562 13.578125 -20.863281 13.171875 -20.3125 C 12.765625 -19.769531 12.375 -19.242188 12 -18.734375 L 16.5625 -18.53125 C 16.9375 -18.476562 17.125 -18.273438 17.125 -17.921875 C 17.0625 -17.546875 16.875 -17.359375 16.5625 -17.359375 C 16.5625 -17.359375 16.550781 -17.359375 16.53125 -17.359375 C 16.519531 -17.359375 16.515625 -17.359375 16.515625 -17.359375 L 10.953125 -17.640625 L 10.921875 -17.640625 C 9.847656 -16.597656 8.71875 -15.613281 7.53125 -14.6875 C 6.351562 -13.757812 5.128906 -12.878906 3.859375 -12.046875 C 3.378906 -11.722656 2.914062 -11.425781 2.46875 -11.15625 C 2.03125 -10.882812 1.53125 -10.585938 0.96875 -10.265625 C 0.96875 -10.265625 0.832031 -10.03125 0.5625 -9.5625 C 0.289062 -9.09375 0.0078125 -8.550781 -0.28125 -7.9375 C -0.570312 -7.320312 -0.757812 -6.785156 -0.84375 -6.328125 C -0.945312 -5.816406 -0.820312 -5.4375 -0.46875 -5.1875 C -0.125 -4.945312 0.328125 -4.789062 0.890625 -4.71875 C 1.453125 -4.65625 2 -4.640625 2.53125 -4.671875 C 3.070312 -4.703125 3.453125 -4.71875 3.671875 -4.71875 C 4.984375 -4.875 6.207031 -5.046875 7.34375 -5.234375 C 8.488281 -5.421875 9.664062 -5.648438 10.875 -5.921875 C 12.082031 -6.191406 13.4375 -6.546875 14.9375 -6.984375 C 16.445312 -7.429688 18.222656 -7.988281 20.265625 -8.65625 C 22.304688 -9.332031 24.722656 -10.164062 27.515625 -11.15625 C 27.890625 -11.289062 28.128906 -11.179688 28.234375 -10.828125 Z M 12.640625 -22 C 11.566406 -21.863281 10.628906 -21.460938 9.828125 -20.796875 C 9.023438 -20.140625 8.25 -19.476562 7.5 -18.8125 C 7.976562 -18.8125 8.457031 -18.8125 8.9375 -18.8125 C 9.425781 -18.8125 9.925781 -18.796875 10.4375 -18.765625 C 10.4375 -18.765625 10.441406 -18.765625 10.453125 -18.765625 C 10.460938 -18.765625 10.46875 -18.78125 10.46875 -18.8125 C 10.925781 -19.269531 11.347656 -19.757812 11.734375 -20.28125 C 12.128906 -20.800781 12.429688 -21.375 12.640625 -22 Z M 6.28125 -17.609375 C 5.5 -16.773438 4.742188 -15.90625 4.015625 -15 C 3.296875 -14.101562 2.628906 -13.171875 2.015625 -12.203125 C 3.304688 -13.003906 4.546875 -13.863281 5.734375 -14.78125 C 6.929688 -15.695312 8.109375 -16.648438 9.265625 -17.640625 C 8.753906 -17.640625 8.253906 -17.632812 7.765625 -17.625 C 7.285156 -17.613281 6.789062 -17.609375 6.28125 -17.609375 Z M 6.28125 -17.609375 "/></g></g></g><g fill="#000000" fill-opacity="1"><g transform="translate(236.006491, 102.630275)"><g><path d="M 21.796875 -10.828125 C 21.929688 -10.453125 21.820312 -10.210938 21.46875 -10.109375 C 21.46875 -10.109375 21.285156 -10.039062 20.921875 -9.90625 C 20.554688 -9.769531 20.132812 -9.613281 19.65625 -9.4375 C 19.175781 -9.269531 18.742188 -9.117188 18.359375 -8.984375 C 17.984375 -8.847656 17.785156 -8.78125 17.765625 -8.78125 C 15.910156 -8.1875 14.242188 -7.773438 12.765625 -7.546875 C 11.285156 -7.316406 9.972656 -7.203125 8.828125 -7.203125 C 7.773438 -7.203125 6.875 -7.269531 6.125 -7.40625 C 5.375 -7.539062 4.753906 -7.691406 4.265625 -7.859375 L 4.234375 -7.8125 C 3.484375 -7.03125 2.601562 -6.351562 1.59375 -5.78125 C 0.582031 -5.207031 -0.5 -4.957031 -1.65625 -5.03125 C -2.164062 -5.03125 -2.582031 -5.25 -2.90625 -5.6875 C -3.226562 -6.132812 -3.28125 -6.585938 -3.0625 -7.046875 C -2.707031 -7.847656 -2.234375 -8.566406 -1.640625 -9.203125 C -1.054688 -9.835938 -0.46875 -10.445312 0.125 -11.03125 C -0.0625 -11.601562 -0.164062 -12.195312 -0.1875 -12.8125 C -0.21875 -13.425781 -0.0625 -13.988281 0.28125 -14.5 C 0.601562 -15.0625 1.070312 -15.46875 1.6875 -15.71875 C 2.3125 -15.976562 2.941406 -16.054688 3.578125 -15.953125 C 4.222656 -15.847656 4.75 -15.539062 5.15625 -15.03125 C 5.9375 -14.164062 6.285156 -13.132812 6.203125 -11.9375 C 6.117188 -10.75 5.753906 -9.695312 5.109375 -8.78125 C 5.804688 -8.59375 6.765625 -8.457031 7.984375 -8.375 C 9.210938 -8.289062 10.695312 -8.375 12.4375 -8.625 C 14.1875 -8.882812 16.21875 -9.421875 18.53125 -10.234375 C 18.613281 -10.253906 18.832031 -10.332031 19.1875 -10.46875 C 19.550781 -10.601562 19.925781 -10.742188 20.3125 -10.890625 C 20.707031 -11.046875 20.957031 -11.132812 21.0625 -11.15625 C 21.382812 -11.289062 21.628906 -11.179688 21.796875 -10.828125 Z M 5 -12.765625 C 4.882812 -13.578125 4.59375 -14.140625 4.125 -14.453125 C 3.65625 -14.773438 3.148438 -14.882812 2.609375 -14.78125 C 2.078125 -14.675781 1.644531 -14.359375 1.3125 -13.828125 C 0.976562 -13.304688 0.875 -12.601562 1 -11.71875 C 1.457031 -11.957031 1.796875 -11.992188 2.015625 -11.828125 C 2.234375 -11.671875 2.113281 -11.328125 1.65625 -10.796875 C 1.945312 -10.472656 2.265625 -10.175781 2.609375 -9.90625 C 2.960938 -9.632812 3.394531 -9.394531 3.90625 -9.1875 C 4.28125 -9.71875 4.601562 -10.28125 4.875 -10.875 C 5.144531 -11.46875 5.1875 -12.097656 5 -12.765625 Z M -2.140625 -6.28125 C -1.140625 -6.09375 -0.195312 -6.21875 0.6875 -6.65625 C 1.570312 -7.101562 2.378906 -7.632812 3.109375 -8.25 C 2.210938 -8.789062 1.414062 -9.398438 0.71875 -10.078125 C 0.15625 -9.503906 -0.382812 -8.914062 -0.90625 -8.3125 C -1.425781 -7.707031 -1.835938 -7.03125 -2.140625 -6.28125 Z M -2.140625 -6.28125 "/></g></g></g><g fill="#000000" fill-opacity="1"><g transform="translate(257.070757, 102.630275)"><g><path d="M 23.40625 -10.875 C 23.457031 -10.738281 23.445312 -10.597656 23.375 -10.453125 C 23.3125 -10.304688 23.203125 -10.207031 23.046875 -10.15625 C 23.015625 -10.125 22.414062 -9.898438 21.25 -9.484375 C 20.082031 -9.066406 18.625 -8.550781 16.875 -7.9375 C 16.039062 -7.664062 14.984375 -7.320312 13.703125 -6.90625 C 12.429688 -6.488281 11.113281 -6.078125 9.75 -5.671875 C 7.625 -5.054688 5.914062 -4.632812 4.625 -4.40625 C 3.34375 -4.175781 2.351562 -4.035156 1.65625 -3.984375 C 0.65625 -3.929688 0.0078125 -4.066406 -0.28125 -4.390625 C -0.570312 -4.710938 -0.628906 -5.128906 -0.453125 -5.640625 C -0.285156 -6.148438 -0.03125 -6.679688 0.3125 -7.234375 C 0.664062 -7.785156 0.992188 -8.273438 1.296875 -8.703125 C 1.609375 -9.128906 1.738281 -9.394531 1.6875 -9.5 C 1.582031 -9.800781 1.398438 -10.003906 1.140625 -10.109375 C 0.890625 -10.210938 0.632812 -10.332031 0.375 -10.46875 C 0.125 -10.601562 -0.0664062 -10.859375 -0.203125 -11.234375 C -0.203125 -11.265625 -0.203125 -11.28125 -0.203125 -11.28125 C -0.203125 -11.84375 -0.0507812 -12.359375 0.25 -12.828125 C 0.5625 -13.296875 0.894531 -13.742188 1.25 -14.171875 C 1.59375 -14.554688 1.976562 -14.90625 2.40625 -15.21875 C 2.84375 -15.539062 3.328125 -15.664062 3.859375 -15.59375 C 4.242188 -15.476562 4.484375 -15.238281 4.578125 -14.875 C 4.671875 -14.519531 4.648438 -14.191406 4.515625 -13.890625 C 4.273438 -13.253906 3.914062 -12.691406 3.4375 -12.203125 C 2.96875 -11.722656 2.46875 -11.265625 1.9375 -10.828125 C 2.3125 -10.617188 2.578125 -10.351562 2.734375 -10.03125 C 2.984375 -9.601562 2.972656 -9.171875 2.703125 -8.734375 C 2.429688 -8.304688 2.148438 -7.921875 1.859375 -7.578125 C 1.554688 -7.203125 1.269531 -6.796875 1 -6.359375 C 0.738281 -5.929688 0.660156 -5.570312 0.765625 -5.28125 C 0.984375 -5.0625 1.632812 -5.03125 2.71875 -5.1875 C 3.800781 -5.351562 5.175781 -5.648438 6.84375 -6.078125 C 8.507812 -6.515625 10.316406 -7.035156 12.265625 -7.640625 C 14.210938 -8.242188 16.140625 -8.894531 18.046875 -9.59375 L 18.046875 -9.546875 C 18.796875 -9.816406 19.550781 -10.09375 20.3125 -10.375 C 21.082031 -10.65625 21.859375 -10.929688 22.640625 -11.203125 C 22.984375 -11.335938 23.238281 -11.226562 23.40625 -10.875 Z M 0.890625 -11.515625 C 1.453125 -11.890625 1.972656 -12.328125 2.453125 -12.828125 C 2.941406 -13.328125 3.304688 -13.898438 3.546875 -14.546875 C 2.953125 -14.191406 2.429688 -13.753906 1.984375 -13.234375 C 1.546875 -12.710938 1.179688 -12.140625 0.890625 -11.515625 Z M 0.890625 -11.515625 "/></g></g></g><g fill="#000000" fill-opacity="1"><g transform="translate(279.66551, 102.630275)"><g><path d="M 4.34375 -16.234375 C 4.800781 -16.203125 5.023438 -16.046875 5.015625 -15.765625 C 5.003906 -15.484375 4.867188 -15.234375 4.609375 -15.015625 C 4.359375 -14.804688 4.097656 -14.8125 3.828125 -15.03125 C 3.554688 -15.238281 3.515625 -15.476562 3.703125 -15.75 C 3.890625 -16.019531 4.101562 -16.179688 4.34375 -16.234375 Z M 17.484375 -10.828125 C 17.617188 -10.515625 17.507812 -10.273438 17.15625 -10.109375 C 17.15625 -10.109375 16.925781 -10.023438 16.46875 -9.859375 C 16.019531 -9.703125 15.472656 -9.515625 14.828125 -9.296875 C 14.179688 -9.085938 13.53125 -8.867188 12.875 -8.640625 C 12.21875 -8.410156 11.664062 -8.210938 11.21875 -8.046875 C 10.769531 -7.890625 10.546875 -7.8125 10.546875 -7.8125 C 9.660156 -7.539062 8.59375 -7.222656 7.34375 -6.859375 C 6.101562 -6.503906 4.84375 -6.195312 3.5625 -5.9375 C 2.289062 -5.6875 1.171875 -5.5625 0.203125 -5.5625 C -0.285156 -5.5625 -0.8125 -5.644531 -1.375 -5.8125 C -1.9375 -5.988281 -2.242188 -6.398438 -2.296875 -7.046875 C -2.328125 -7.554688 -2.164062 -8.132812 -1.8125 -8.78125 C -1.457031 -9.425781 -1.019531 -10.054688 -0.5 -10.671875 C 0.0195312 -11.285156 0.519531 -11.828125 1 -12.296875 C 1.488281 -12.773438 1.828125 -13.09375 2.015625 -13.25 C 2.117188 -13.351562 2.242188 -13.40625 2.390625 -13.40625 C 2.546875 -13.40625 2.675781 -13.34375 2.78125 -13.21875 C 2.914062 -13.101562 2.972656 -12.960938 2.953125 -12.796875 C 2.941406 -12.640625 2.867188 -12.507812 2.734375 -12.40625 C 2.410156 -12.082031 1.988281 -11.648438 1.46875 -11.109375 C 0.945312 -10.578125 0.453125 -10.015625 -0.015625 -9.421875 C -0.484375 -8.835938 -0.828125 -8.304688 -1.046875 -7.828125 C -1.265625 -7.359375 -1.25 -7.046875 -1 -6.890625 C -0.6875 -6.703125 -0.0625 -6.644531 0.875 -6.71875 C 1.820312 -6.800781 2.925781 -6.984375 4.1875 -7.265625 C 5.445312 -7.546875 6.75 -7.875 8.09375 -8.25 C 9.4375 -8.632812 10.671875 -9.023438 11.796875 -9.421875 C 11.828125 -9.421875 12.128906 -9.519531 12.703125 -9.71875 C 13.285156 -9.925781 13.960938 -10.171875 14.734375 -10.453125 C 15.515625 -10.734375 16.1875 -10.984375 16.75 -11.203125 C 17.15625 -11.304688 17.398438 -11.179688 17.484375 -10.828125 Z M 17.484375 -10.828125 "/></g></g></g><g fill="#000000" fill-opacity="1"><g transform="translate(296.420256, 102.630275)"><g><path d="M 24.859375 -10.828125 C 24.878906 -10.773438 24.890625 -10.679688 24.890625 -10.546875 C 24.835938 -10.335938 24.71875 -10.191406 24.53125 -10.109375 C 24.5 -10.109375 24.226562 -10.015625 23.71875 -9.828125 C 23.207031 -9.640625 22.523438 -9.398438 21.671875 -9.109375 C 21.003906 -8.859375 20.140625 -8.546875 19.078125 -8.171875 C 18.015625 -7.796875 16.890625 -7.421875 15.703125 -7.046875 C 14.523438 -6.671875 13.382812 -6.363281 12.28125 -6.125 C 11.1875 -5.882812 10.257812 -5.765625 9.5 -5.765625 C 9.019531 -5.765625 8.644531 -5.832031 8.375 -5.96875 C 7.976562 -6.175781 7.75 -6.492188 7.6875 -6.921875 C 7.664062 -7.242188 7.738281 -7.617188 7.90625 -8.046875 C 8.082031 -8.484375 8.332031 -8.929688 8.65625 -9.390625 C 8.65625 -9.390625 8.773438 -9.535156 9.015625 -9.828125 C 9.265625 -10.117188 9.539062 -10.445312 9.84375 -10.8125 C 10.15625 -11.175781 10.421875 -11.453125 10.640625 -11.640625 C 8.890625 -11.210938 7.1875 -10.703125 5.53125 -10.109375 C 3.882812 -9.515625 2.21875 -9.003906 0.53125 -8.578125 C 0.28125 -8.492188 0.00390625 -8.472656 -0.296875 -8.515625 C -0.609375 -8.554688 -0.863281 -8.671875 -1.0625 -8.859375 C -1.269531 -9.046875 -1.316406 -9.300781 -1.203125 -9.625 C -0.878906 -10.351562 -0.40625 -10.960938 0.21875 -11.453125 C 0.851562 -11.953125 1.460938 -12.445312 2.046875 -12.9375 C 3.066406 -13.6875 4.179688 -14.34375 5.390625 -14.90625 C 6.597656 -15.46875 7.847656 -15.585938 9.140625 -15.265625 C 9.679688 -15.160156 10.128906 -14.890625 10.484375 -14.453125 C 10.847656 -14.023438 11.003906 -13.53125 10.953125 -12.96875 C 11.066406 -12.96875 11.160156 -12.96875 11.234375 -12.96875 C 11.316406 -12.96875 11.410156 -12.96875 11.515625 -12.96875 C 11.679688 -12.945312 11.9375 -12.898438 12.28125 -12.828125 C 12.632812 -12.765625 12.742188 -12.582031 12.609375 -12.28125 C 12.015625 -11.53125 11.550781 -10.96875 11.21875 -10.59375 C 10.882812 -10.21875 10.503906 -9.816406 10.078125 -9.390625 C 9.671875 -8.878906 9.351562 -8.421875 9.125 -8.015625 C 8.894531 -7.609375 8.796875 -7.300781 8.828125 -7.09375 C 8.828125 -7.039062 8.851562 -7 8.90625 -6.96875 C 9.195312 -6.8125 9.816406 -6.816406 10.765625 -6.984375 C 11.722656 -7.160156 12.859375 -7.429688 14.171875 -7.796875 C 15.492188 -8.160156 16.851562 -8.582031 18.25 -9.0625 C 19.644531 -9.539062 20.929688 -10.007812 22.109375 -10.46875 C 22.109375 -10.46875 22.359375 -10.554688 22.859375 -10.734375 C 23.359375 -10.910156 23.78125 -11.066406 24.125 -11.203125 C 24.257812 -11.253906 24.40625 -11.242188 24.5625 -11.171875 C 24.726562 -11.109375 24.828125 -10.992188 24.859375 -10.828125 Z M 9.671875 -12.5625 C 9.828125 -13.050781 9.804688 -13.425781 9.609375 -13.6875 C 9.410156 -13.957031 9.109375 -14.125 8.703125 -14.1875 C 8.296875 -14.257812 7.867188 -14.273438 7.421875 -14.234375 C 6.984375 -14.191406 6.617188 -14.117188 6.328125 -14.015625 C 5.117188 -13.585938 3.988281 -12.984375 2.9375 -12.203125 C 1.894531 -11.421875 0.929688 -10.578125 0.046875 -9.671875 C 1.679688 -10.046875 3.28125 -10.515625 4.84375 -11.078125 C 6.414062 -11.640625 8.023438 -12.132812 9.671875 -12.5625 Z M 9.671875 -12.5625 "/></g></g></g></svg>